# xmcd CD database file
#
# Track frame offsets:
#	150
#	19222
#	45577
#
# Disc length: 884 seconds
#
# Revision: 5
# Processed by: cddbd v1.5.2PL0 Copyright (c) Steve Scherf et al.
# Submitted via: CDex 1.70beta3
#
DISCID=1c037203
DTITLE=BENNIE K - Dreamland
DYEAR=2005
DGENRE=J-POP
TTITLE0=Dreamland
TTITLE1=UNITY
TTITLE2=旅人
EXTD=YEAR: 2005
EXTT0=
EXTT1=
EXTT2=
PLAYORDER=
